# xmcd CD database file
#
# Track frame offsets:
#	150
#	19330
#	42577
#	61837
#
# Disc length: 1133 seconds
#
# Revision: 0
# Processed by: cddbd v1.5PL3 Copyright (c) Steve Scherf et al.
# Submitted via: CDex 1.50Beta7
#
DISCID=30046b04
DTITLE=松たか子 - 真冬のメモリーズ
DYEAR=1997
DGENRE=JPop
TTITLE0=真冬のメモリーズ
TTITLE1=20 Candles
TTITLE2=真冬のメモリーズ (original karaoke)
TTITLE3=20 Candles (original karaoke)
EXTD=YEAR: 1997/11/21
EXTT0=
EXTT1=
EXTT2=
EXTT3=
PLAYORDER=
